<svg width="18" height="18" viewBox="0 0 18 18" fill="none" xmlns="http://www.w3.org/2000/svg">
<path d="M10.9825 8.99942L17.7124 2.26917C17.8976 2.0839 17.9997 1.83673 18 1.57317C18 1.30946 17.8979 1.062 17.7124 0.877024L17.1227 0.287415C16.9373 0.101707 16.6901 0 16.4262 0C16.1628 0 15.9157 0.101707 15.7302 0.287415L9.00029 7.01722L2.27005 0.287415C2.08493 0.101707 1.83761 0 1.5739 0C1.31049 0 1.06317 0.101707 0.878049 0.287415L0.288 0.877024C-0.096 1.26102 -0.096 1.88561 0.288 2.26917L7.0181 8.99942L0.288 15.7294C0.102732 15.9149 0.000731707 16.1621 0.000731707 16.4257C0.000731707 16.6892 0.102732 16.9364 0.288 17.1218L0.877902 17.7114C1.06302 17.897 1.31049 17.9988 1.57376 17.9988C1.83746 17.9988 2.08478 17.897 2.2699 17.7114L9.00015 10.9815L15.7301 17.7114C15.9155 17.897 16.1627 17.9988 16.4261 17.9988H16.4264C16.69 17.9988 16.9371 17.897 17.1225 17.7114L17.7123 17.1218C17.8974 16.9365 17.9996 16.6892 17.9996 16.4257C17.9996 16.1621 17.8974 15.9149 17.7123 15.7295L10.9825 8.99942Z" fill="#999999"/>
</svg>
