<svg width="12" height="12" viewBox="0 0 12 12" fill="none" xmlns="http://www.w3.org/2000/svg">
<path d="M7.32166 6L11.8083 1.51288C11.9317 1.38936 11.9998 1.22457 12 1.04885C12 0.873032 11.9319 0.708046 11.8083 0.584721L11.4151 0.191622C11.2915 0.0678093 11.1267 0 10.9508 0C10.7752 0 10.6104 0.0678093 10.4868 0.191622L6.0002 4.67845L1.51337 0.191622C1.38995 0.0678093 1.22507 0 1.04927 0C0.873659 0 0.70878 0.0678093 0.585366 0.191622L0.192 0.584721C-0.064 0.840738 -0.064 1.25715 0.192 1.51288L4.67873 6L0.192 10.4869C0.0684878 10.6106 0.000487805 10.7754 0.000487805 10.9512C0.000487805 11.1269 0.0684878 11.2917 0.192 11.4153L0.585268 11.8084C0.708683 11.9321 0.873658 12 1.04917 12C1.22498 12 1.38985 11.9321 1.51327 11.8084L6.0001 7.32145L10.4867 11.8084C10.6103 11.9321 10.7751 12 10.9507 12H10.9509C11.1266 12 11.2914 11.9321 11.415 11.8084L11.8082 11.4153C11.9316 11.2918 11.9997 11.1269 11.9997 10.9512C11.9997 10.7754 11.9316 10.6106 11.8082 10.487L7.32166 6Z" fill="black"/>
</svg>
