<svg width="8" height="12" viewBox="0 0 8 12" fill="none" xmlns="http://www.w3.org/2000/svg">
<path d="M0.592395 0.191808L0.196587 0.584884C0.0729758 0.708592 0.00487771 0.873178 0.00487772 1.04908C0.00487773 1.22489 0.0729759 1.38967 0.196587 1.51338L4.68072 5.99732L0.191611 10.4864C0.0680006 10.6099 -5.35586e-08 10.7747 -4.58739e-08 10.9505C-3.81891e-08 11.1263 0.0680006 11.2912 0.191611 11.4148L0.58498 11.808C0.840787 12.064 1.25747 12.064 1.51328 11.808L6.87732 6.46317C7.00084 6.33966 7.08786 6.17507 7.08786 5.99771L7.08786 5.99566C7.08786 5.81975 7.00074 5.65517 6.87732 5.53165L1.52782 0.191808C1.4043 0.068099 1.23474 0.000195449 1.05893 9.07387e-07C0.883031 9.15076e-07 0.71581 0.068099 0.592395 0.191808Z" fill="#999999"/>
</svg>
