<svg width="19" height="21" viewBox="0 0 19 21" fill="none" xmlns="http://www.w3.org/2000/svg">
<path fill-rule="evenodd" clip-rule="evenodd" d="M1.94636e-06 19.5402L-3.57312e-07 12.8257C-3.92551e-07 12.0195 0.58818 11.366 1.31373 11.366C2.03927 11.366 2.62745 12.0195 2.62745 12.8257L2.62745 19.5402C2.62745 20.3464 2.03927 20.9999 1.31373 20.9999C0.588181 20.9999 1.9816e-06 20.3464 1.94636e-06 19.5402ZM10.5098 19.632L10.5098 8.35511C10.5098 7.5996 11.1223 6.98712 11.8778 6.98712C12.6333 6.98712 13.2458 7.5996 13.2458 8.35511L13.2458 19.632C13.2458 20.3875 12.6333 20.9999 11.8778 20.9999C11.1223 20.9999 10.5098 20.3875 10.5098 19.632ZM5.2549 5.75299L5.2549 19.632C5.2549 20.3875 5.86737 21 6.62288 21C7.37839 21 7.99087 20.3875 7.99087 19.632L7.99086 5.75299C7.99086 4.99748 7.37839 4.38501 6.62288 4.38501C5.86737 4.38501 5.2549 4.99748 5.2549 5.75299ZM15.7648 19.632L15.7648 1.37384C15.7648 0.618331 16.3772 0.00585866 17.1327 0.00585863C17.8882 0.00585859 18.5007 0.618331 18.5007 1.37384L18.5007 19.632C18.5007 20.3875 17.8882 20.9999 17.1327 20.9999C16.3772 20.9999 15.7648 20.3875 15.7648 19.632Z" fill="#5DAC0D"/>
</svg>
