<svg width="34" height="30" viewBox="0 0 34 30" fill="none" xmlns="http://www.w3.org/2000/svg">
<path d="M34 16.9336C34 15.8585 33.6587 14.8354 33.0132 13.9747C32.3648 13.1103 32.0078 12.0412 32.0078 10.9643V10.957C32.0078 10.4069 31.5618 9.96094 31.0117 9.96094H27.0273C26.4772 9.96094 26.0312 10.4069 26.0312 10.957V10.9643C26.0312 12.0568 25.6836 13.0978 25.0259 13.9747C24.3803 14.8354 24.0391 15.8585 24.0391 16.9336C24.0391 19.3388 25.7529 21.3511 28.0234 21.8139V22.9102C28.0234 25.6564 25.7594 27.8906 22.9766 27.8906C20.2303 27.8906 17.9961 25.6564 17.9961 22.9102V21.8139C20.2667 21.3511 21.9805 19.3388 21.9805 16.9336C21.9805 15.8585 21.6392 14.8354 20.9937 13.9747C20.3453 13.1103 19.9883 12.0412 19.9883 10.9643V10.957C19.9883 10.4069 19.5423 9.96094 18.9922 9.96094H17.9961V5.87636C19.9447 5.47925 21.4831 3.94081 21.8803 1.99219H24.9688C25.5189 1.99219 25.9648 1.5462 25.9648 0.996094C25.9648 0.445984 25.5189 0 24.9688 0H9.03125C8.48114 0 8.03516 0.445984 8.03516 0.996094C8.03516 1.5462 8.48114 1.99219 9.03125 1.99219H12.1197C12.5168 3.94081 14.0553 5.47918 16.0039 5.87636V9.96094H15.0078C14.4577 9.96094 14.0117 10.4069 14.0117 10.957V10.9643C14.0117 12.0568 13.6641 13.0978 13.0063 13.9747C12.3608 14.8354 12.0195 15.8585 12.0195 16.9336C12.0195 19.3388 13.7333 21.3511 16.0039 21.8139V22.9102C16.0039 25.6564 13.7697 27.8906 11.0234 27.8906C8.24055 27.8906 5.97656 25.6564 5.97656 22.9102V21.8139C8.24712 21.3511 9.96094 19.3388 9.96094 16.9336C9.96094 15.8597 9.62034 14.8373 8.97593 13.9771C8.32641 13.1101 7.96875 12.038 7.96875 10.957C7.96875 10.4069 7.52277 9.96094 6.97266 9.96094H2.98828C2.43817 9.96094 1.99219 10.4069 1.99219 10.957V10.9643C1.99219 12.0568 1.64455 13.0978 0.986797 13.9747C0.341262 14.8354 0 15.8585 0 16.9336C0 19.3388 1.71381 21.3511 3.98438 21.8139V22.9102C3.98438 26.7549 7.14206 29.8828 11.0234 29.8828C13.5569 29.8828 15.7789 28.5245 17 26.498C18.2211 28.5245 20.4431 29.8828 22.9766 29.8828C26.8579 29.8828 30.0156 26.7549 30.0156 22.9102V21.8139C32.2862 21.3511 34 19.3388 34 16.9336Z" fill="#2399E2"/>
</svg>
