<svg width="26" height="20" viewBox="0 0 26 20" fill="none" xmlns="http://www.w3.org/2000/svg">
<path fill-rule="evenodd" clip-rule="evenodd" d="M6.80802 0H23.4747C24.3952 0 25.1414 0.671578 25.1414 1.5C25.1414 2.32842 24.3952 3 23.4747 3H6.80802C5.88756 3 5.14136 2.32842 5.14136 1.5C5.14136 0.671578 5.88756 0 6.80802 0ZM3.13265 1.5619C3.13089 1.14833 2.96518 0.752325 2.67188 0.460729C2.06267 -0.144869 1.07873 -0.144869 0.469525 0.460729C0.176171 0.752325 0.0104577 1.14833 0.00874936 1.5619C-0.00291645 1.66309 -0.00291645 1.7653 0.00874936 1.86648C0.0264189 1.96825 0.0552174 2.06778 0.0946567 2.16325C0.136585 2.25575 0.186226 2.34459 0.243042 2.42879C0.299126 2.51635 0.364581 2.59752 0.438286 2.67089C0.509355 2.74166 0.587891 2.80453 0.672578 2.85832C0.754825 2.91821 0.844003 2.96805 0.93811 3.00671C1.04164 3.0604 1.152 3.09984 1.26612 3.12385C1.3673 3.13518 1.46952 3.13518 1.5707 3.12385C1.98315 3.12419 2.37901 2.96136 2.67188 2.67089C2.74558 2.59752 2.81104 2.51635 2.86712 2.42879C2.92394 2.34459 2.97358 2.25575 3.0155 2.16325C3.06534 2.06895 3.10463 1.96943 3.13265 1.86648C3.14432 1.7653 3.14432 1.66309 3.13265 1.5619ZM3.13269 9.25079C3.14431 9.35198 3.14431 9.45419 3.13269 9.55537C3.1447 9.65656 3.1447 9.75877 3.13269 9.85995C3.10828 9.97398 3.06889 10.0843 3.01554 10.188C2.97703 10.2822 2.9272 10.3713 2.86716 10.4535C2.81288 10.54 2.74718 10.6188 2.67191 10.6878C2.6029 10.7631 2.52412 10.8288 2.43762 10.883C2.35274 10.9432 2.26098 10.993 2.16428 11.0314C2.07174 11.0714 1.9747 11.1003 1.87532 11.1173C1.77413 11.129 1.67192 11.129 1.57074 11.1173C1.46833 11.119 1.36608 11.1085 1.26616 11.0861C1.16424 11.0691 1.06462 11.0403 0.969389 11.0002C0.875232 10.9616 0.786103 10.9117 0.703857 10.8518C0.617364 10.7975 0.538583 10.7318 0.469564 10.6565C0.393956 10.5857 0.325914 10.5071 0.266511 10.4223C0.212136 10.338 0.165082 10.2491 0.125935 10.1567C0.0514986 9.9648 0.0118153 9.76121 0.00878906 9.55537C0.0104974 9.1418 0.176211 8.74579 0.469564 8.4542C1.07877 7.8486 2.06271 7.8486 2.67191 8.4542C2.74733 8.52307 2.81303 8.6019 2.86716 8.68849C2.92559 8.77445 2.97532 8.86602 3.01554 8.96183C3.06636 9.05296 3.1057 9.15 3.13269 9.25079ZM3.13269 17.2508C3.14431 17.352 3.14431 17.4542 3.13269 17.5554C3.1447 17.6566 3.1447 17.7588 3.13269 17.86C3.10828 17.974 3.06889 18.0843 3.01554 18.188C2.97703 18.2822 2.9272 18.3713 2.86716 18.4535C2.81288 18.54 2.74718 18.6188 2.67191 18.6878C2.6029 18.7631 2.52412 18.8288 2.43762 18.883C2.35274 18.9432 2.26098 18.993 2.16428 19.0314C2.07174 19.0714 1.9747 19.1003 1.87532 19.1173C1.77413 19.129 1.67192 19.129 1.57074 19.1173C1.46833 19.119 1.36608 19.1085 1.26616 19.0861C1.16424 19.0691 1.06462 19.0403 0.969389 19.0002C0.875232 18.9616 0.786103 18.9117 0.703857 18.8518C0.617364 18.7975 0.538583 18.7318 0.469564 18.6565C0.393956 18.5857 0.325914 18.5071 0.266511 18.4223C0.212136 18.338 0.165082 18.2491 0.125935 18.1567C0.0514986 17.9648 0.0118153 17.7612 0.00878906 17.5554C0.0104974 17.1418 0.176211 16.7458 0.469564 16.4542C1.07877 15.8486 2.06271 15.8486 2.67191 16.4542C2.74733 16.5231 2.81303 16.6019 2.86716 16.6885C2.92559 16.7744 2.97532 16.866 3.01554 16.9618C3.06636 17.053 3.1057 17.15 3.13269 17.2508ZM6.70367 16H23.8851C24.7478 16 25.4471 16.6993 25.4471 17.562C25.4471 18.4246 24.7478 19.1239 23.8851 19.1239H6.70367C5.84104 19.1239 5.14172 18.4246 5.14172 17.562C5.14172 16.6993 5.84104 16 6.70367 16ZM23.8851 8H6.70367C5.84104 8 5.14172 8.69931 5.14172 9.56195C5.14172 10.4246 5.84104 11.1239 6.70367 11.1239H23.8851C24.7478 11.1239 25.4471 10.4246 25.4471 9.56195C25.4471 8.69931 24.7478 8 23.8851 8Z" fill="#999999"/>
</svg>
