<svg width="38" height="31" viewBox="0 0 38 31" fill="none" xmlns="http://www.w3.org/2000/svg">
<path d="M14.4503 25.0606C12.993 25.0606 11.8027 26.192 11.8027 27.5772C11.8027 28.9625 12.993 30.0939 14.4503 30.0939C15.9075 30.0939 17.0978 28.9625 17.0978 27.5772C17.0867 26.1815 15.9075 25.0606 14.4503 25.0606Z" fill="#DE5617"/>
<path d="M28.4776 30.0833C29.9398 30.0833 31.1251 28.9566 31.1251 27.5667C31.1251 26.1768 29.9398 25.05 28.4776 25.05C27.0154 25.05 25.8301 26.1768 25.8301 27.5667C25.8301 28.9566 27.0154 30.0833 28.4776 30.0833Z" fill="#DE5617"/>
<path d="M36.9432 4.86409L36.832 4.84294H7.54215L5.90691 0.0105741L1.64637 0H1.63525C1.613 0 1.524 0 1.2904 0H1.21253C0.545082 0 0 0.518131 0 1.142C0 1.68128 0.400468 2.14654 0.94555 2.26286L1.06792 2.28401H4.02693L10.7237 22.3642L10.757 22.47C10.9239 22.9987 11.4356 23.3582 12.0141 23.3582H32.1265H32.1376C32.1487 23.3582 32.1598 23.3582 32.171 23.3582C32.1821 23.3582 32.1932 23.3582 32.2155 23.3582C32.2266 23.3582 32.2488 23.3582 32.26 23.3582C32.9496 23.3582 33.517 22.8295 33.517 22.1739C33.517 21.5923 33.0609 21.0848 32.4602 20.9896L32.3601 20.979H12.904L12.1475 18.695H31.9262L32.0041 18.6844C32.0375 18.6844 32.0486 18.6844 32.082 18.6844C32.0931 18.6844 32.1153 18.6844 32.1265 18.6844C32.8162 18.6844 33.3835 18.1557 33.3835 17.5001C33.3835 17.0983 33.1721 16.7282 32.8162 16.5062L36.2646 7.24326H36.5984H36.6095C36.6429 7.24326 36.654 7.24326 36.6874 7.24326H36.6985C36.7096 7.24326 36.7207 7.24326 36.743 7.24326C37.4327 7.24326 38 6.71455 38 6.05896C38 5.46681 37.5439 4.95925 36.9432 4.86409ZM31.4479 12.911L31.3589 13.1542C31.3478 13.1753 30.5135 15.4911 30.2465 16.2524L30.2354 16.2947H27.3653L27.8326 12.9004L31.4479 12.911ZM33.5059 7.23269L32.2711 10.5212H28.1552L28.6001 7.23269H33.5059ZM25.3074 12.911L24.8402 16.3053H22.0814V12.911H25.3074ZM26.0749 7.23269L25.63 10.5212H22.0925V7.23269H26.0749ZM19.5785 12.911V16.3053H17.0422L16.5749 12.911H19.5785ZM19.5785 7.23269V10.5212H16.2523L15.8074 7.23269H19.5785ZM13.7272 10.5212H9.42213L8.34309 7.23269H13.2822L13.7272 10.5212ZM14.517 16.2947H11.3466L10.2342 12.911H14.0498L14.517 16.2947Z" fill="#DE5617"/>
</svg>
