<svg width="40" height="40" viewBox="0 0 40 40" fill="none" xmlns="http://www.w3.org/2000/svg">
<path d="M32.0001 30C32.5524 30 33.0001 29.5523 33.0001 29C33.0001 28.4477 32.5524 28 32.0001 28V30ZM14 7C13.4477 7 13 7.44772 13 8C13 8.55228 13.4477 9 14 9V7ZM4.37139 4.07152C3.85861 3.86641 3.27664 4.11583 3.07152 4.62861C2.86641 5.14139 3.11583 5.72336 3.62861 5.92848L4.37139 4.07152ZM35.4489 10.4405L34.4735 10.2203L35.4489 10.4405ZM32.8521 21.9405L31.8767 21.7203L32.8521 21.9405ZM9.29333 7.88L8.34465 8.19622L9.29333 7.88ZM12.3868 25.0884L11.7564 24.3121L12.3868 25.0884ZM12.603 24.9026L11.9324 24.1608L12.603 24.9026ZM12.7667 28.9225L12.3834 29.8461L12.7667 28.9225ZM32.0001 28H13.2463V30H32.0001V28ZM13.1499 27.9988C12.8566 27.8771 12.545 27.5375 12.4532 27.1273C12.3789 26.7948 12.4319 26.34 13.0172 25.8646L11.7564 24.3121C10.6111 25.2422 10.2535 26.4552 10.5015 27.5638C10.732 28.5948 11.4756 29.4694 12.3834 29.8461L13.1499 27.9988ZM13.2737 25.6444C13.6721 25.2841 14.5863 24.6444 15.0547 24.3321L13.9453 22.6679C13.4899 22.9716 12.456 23.6874 11.9324 24.1608L13.2737 25.6444ZM14.5 24.5H30.9013V22.5H14.5V24.5ZM33.8276 22.1608L36.4244 10.6608L34.4735 10.2203L31.8767 21.7203L33.8276 22.1608ZM33.498 7H14V9H33.498V7ZM15.4487 23.1838L10.242 7.56377L8.34465 8.19622L13.5513 23.8162L15.4487 23.1838ZM8.51014 5.72702L4.37139 4.07152L3.62861 5.92848L7.76736 7.58398L8.51014 5.72702ZM36.4244 10.6608C36.848 8.78457 35.4215 7 33.498 7V9C34.1392 9 34.6147 9.59486 34.4735 10.2203L36.4244 10.6608ZM30.9013 24.5C32.3035 24.5 33.5187 23.5286 33.8276 22.1608L31.8767 21.7203C31.7737 22.1762 31.3687 22.5 30.9013 22.5V24.5ZM10.242 7.56377C9.96296 6.7266 9.32947 6.05476 8.51014 5.72702L7.76736 7.58398C8.04047 7.69322 8.25163 7.91717 8.34465 8.19622L10.242 7.56377ZM13.0172 25.8646C13.1062 25.7923 13.1922 25.7181 13.2737 25.6444L11.9324 24.1608C11.8734 24.2141 11.8144 24.265 11.7564 24.3121L13.0172 25.8646ZM13.2463 28C13.1928 28 13.1615 27.9974 13.1437 27.9949C13.127 27.9925 13.1321 27.9914 13.1499 27.9988L12.3834 29.8461C12.7148 29.9836 13.0351 30 13.2463 30V28Z" fill="black"/>
<circle cx="15" cy="33" r="1" stroke="black" stroke-width="2"/>
<circle cx="30" cy="33" r="1" stroke="black" stroke-width="2"/>
</svg>
