<svg width="5" height="8" viewBox="0 0 5 8" fill="none" xmlns="http://www.w3.org/2000/svg">
<path d="M0.533603 0.127872L0.269731 0.389922C0.187324 0.472394 0.141925 0.582119 0.141925 0.699388C0.141925 0.816592 0.187324 0.926447 0.269731 1.00892L3.25915 3.99821L0.266413 6.99095C0.184006 7.07329 0.138672 7.18315 0.138672 7.30035C0.138672 7.41756 0.184006 7.52748 0.266413 7.60988L0.528659 7.872C0.699197 8.04267 0.976988 8.04267 1.14753 7.872L4.72355 4.30878C4.8059 4.22644 4.86391 4.11672 4.86391 3.99847L4.86391 3.99711C4.86391 3.87984 4.80583 3.77011 4.72355 3.68777L1.15722 0.127872C1.07488 0.0453993 0.961834 0.000130284 0.84463 9.25751e-08C0.727361 7.71971e-08 0.61588 0.0453993 0.533603 0.127872Z" fill="black"/>
</svg>
