<svg width="10" height="10" viewBox="0 0 10 10" fill="none" xmlns="http://www.w3.org/2000/svg">
<path d="M2.5336 1.12787L2.26973 1.38992C2.18732 1.47239 2.14192 1.58212 2.14192 1.69939C2.14192 1.81659 2.18732 1.92645 2.26973 2.00892L5.25915 4.99821L2.26641 7.99095C2.18401 8.07329 2.13867 8.18315 2.13867 8.30035C2.13867 8.41756 2.18401 8.52748 2.26641 8.60988L2.52866 8.872C2.6992 9.04267 2.97699 9.04267 3.14753 8.872L6.72355 5.30878C6.8059 5.22644 6.86391 5.11672 6.86391 4.99847L6.86391 4.99711C6.86391 4.87984 6.80583 4.77011 6.72355 4.68777L3.15722 1.12787C3.07488 1.0454 2.96183 1.00013 2.84463 1C2.72736 1 2.61588 1.0454 2.5336 1.12787Z" fill="black"/>
</svg>
