<svg width="18" height="18" viewBox="0 0 18 18" fill="none" xmlns="http://www.w3.org/2000/svg">
<circle cx="9" cy="9" r="9" fill="#2399E2"/>
<path d="M11.0409 5.09541C11.0409 4.60341 10.6569 4.21941 10.1649 4.21941C9.67294 4.21941 9.25294 4.63941 9.25294 5.13141C9.25294 5.59941 9.63694 5.99541 10.1169 5.99541C10.6329 5.99541 11.0409 5.57541 11.0409 5.09541ZM10.6089 10.5794C10.4529 10.9514 10.2609 11.2874 10.0449 11.5634C9.84094 11.8394 9.68494 11.9714 9.58894 11.9714C9.33694 11.9714 9.34894 11.7074 9.52894 11.0354L10.0209 9.27141C10.2009 8.59941 10.2969 8.11941 10.2969 7.84341C10.2969 7.21941 9.93694 6.90741 9.22894 6.90741C8.46094 6.90741 7.76494 7.55541 7.15294 8.85141L7.51294 9.06741C7.86094 8.28741 8.31694 7.67541 8.54494 7.67541C8.66494 7.67541 8.72494 7.74741 8.72494 7.90341C8.72494 8.05941 8.67694 8.29941 8.58094 8.62341L8.08894 10.4114C7.90894 11.0954 7.81294 11.5634 7.81294 11.8034C7.81294 12.4394 8.17294 12.7514 8.89294 12.7514C9.64894 12.7514 10.3449 12.1034 10.9569 10.7954L10.6089 10.5794Z" fill="white"/>
</svg>
