<svg width="8" height="12" viewBox="0 0 8 12" fill="none" xmlns="http://www.w3.org/2000/svg">
<path d="M6.49549 11.8082L6.8913 11.4151C7.01491 11.2914 7.08301 11.1268 7.08301 10.9509C7.08301 10.7751 7.01491 10.6103 6.8913 10.4866L2.40717 6.00268L6.89628 1.51357C7.01989 1.39006 7.08789 1.22528 7.08789 1.04947C7.08789 0.873666 7.01989 0.708786 6.89628 0.585175L6.50291 0.192002C6.2471 -0.0640006 5.83042 -0.0640006 5.57461 0.192001L0.210566 5.53682C0.0870526 5.66034 2.69251e-05 5.82492 2.69173e-05 6.00229L2.69173e-05 6.00434C2.69096e-05 6.18024 0.0871503 6.34483 0.210566 6.46834L5.56007 11.8082C5.68359 11.9319 5.85315 11.9998 6.02895 12C6.20486 12 6.37208 11.9319 6.49549 11.8082Z" fill="#5DAC0D"/>
</svg>