<svg width="22" height="17" viewBox="0 0 22 17" fill="none" xmlns="http://www.w3.org/2000/svg">
<path fill-rule="evenodd" clip-rule="evenodd" d="M1.47907 16.1361L12.4791 16.1361C13.1694 16.1361 13.7291 15.6324 13.7291 15.0111C13.7291 14.3898 13.1694 13.8861 12.4791 13.8861L1.47907 13.8861C0.788717 13.8861 0.229067 14.3898 0.229067 15.0111C0.229067 15.6324 0.788716 16.1361 1.47907 16.1361ZM1.17147 10.8645L8.05757 10.8645C8.70455 10.8645 9.22904 10.3401 9.22904 9.69309C9.22904 9.04611 8.70455 8.52162 8.05757 8.52162L1.17147 8.52162C0.524497 8.52162 9.2029e-06 9.04611 9.14634e-06 9.69309C9.08978e-06 10.3401 0.524497 10.8645 1.17147 10.8645ZM3.55754 5.59294L1.19304 5.59294C0.546059 5.59294 0.0215721 5.06846 0.0215722 4.42148C0.0215722 3.7745 0.546059 3.25002 1.19304 3.25002L3.55754 3.25002C4.20452 3.25002 4.72901 3.7745 4.72901 4.42148C4.72901 5.06846 4.20452 5.59294 3.55754 5.59294Z" fill="#999999"/>
<path d="M16.8653 1.54095C16.8595 1.57777 16.8568 1.61504 16.8573 1.65233L16.8573 8.75165L16.7947 8.6132C16.7324 8.47787 16.6477 8.35476 16.5444 8.24937L14.8143 6.46886C14.5968 6.23437 14.2468 6.19497 13.9852 6.37549C13.7064 6.5856 13.6458 6.98853 13.85 7.27549C13.8665 7.29867 13.8845 7.3207 13.9039 7.34141L17.0325 10.5611C17.2767 10.8128 17.6729 10.813 17.9174 10.5616L21.0464 7.34141C21.2905 7.08959 21.2899 6.68187 21.0452 6.43073C21.026 6.41097 21.0055 6.39252 20.9839 6.37549C20.7222 6.19497 20.3723 6.23437 20.1548 6.46886L18.4216 8.24615C18.3296 8.34063 18.2526 8.44926 18.1932 8.56813L18.1087 8.76131L18.1087 1.68777C18.1206 1.35881 17.8973 1.0702 17.5831 1.0084C17.242 0.951472 16.9206 1.1899 16.8653 1.54095Z" fill="#999999" stroke="#999999" stroke-width="0.752577"/>
</svg>
