<svg width="40" height="40" viewBox="0 0 40 40" fill="none" xmlns="http://www.w3.org/2000/svg">
<rect x="1" y="1" width="38" height="38" stroke="white" stroke-width="2"/>
<path d="M16.5924 14.1918L16.1966 14.5849C16.073 14.7086 16.0049 14.8732 16.0049 15.0491C16.0049 15.2249 16.073 15.3897 16.1966 15.5134L20.6807 19.9973L16.1916 24.4864C16.068 24.6099 16 24.7747 16 24.9505C16 25.1263 16.068 25.2912 16.1916 25.4148L16.585 25.808C16.8408 26.064 17.2575 26.064 17.5133 25.808L22.8773 20.4632C23.0008 20.3397 23.0879 20.1751 23.0879 19.9977L23.0879 19.9957C23.0879 19.8198 23.0007 19.6552 22.8773 19.5317L17.5278 14.1918C17.4043 14.0681 17.2347 14.0002 17.0589 14C16.883 14 16.7158 14.0681 16.5924 14.1918Z" fill="black"/>
</svg>