<svg width="25" height="12" viewBox="0 0 25 12" fill="none" xmlns="http://www.w3.org/2000/svg">
<rect width="25" height="12" fill="#FF0000"/>
<path d="M5.78672 7.50781C5.78672 7.28646 5.70859 7.11719 5.55234 7C5.39609 6.88021 5.11484 6.75521 4.70859 6.625C4.30234 6.49219 3.98073 6.36198 3.74375 6.23438C3.09792 5.88542 2.775 5.41536 2.775 4.82422C2.775 4.51693 2.86094 4.24349 3.03281 4.00391C3.20729 3.76172 3.45599 3.57292 3.77891 3.4375C4.10443 3.30208 4.46901 3.23438 4.87266 3.23438C5.27891 3.23438 5.64089 3.30859 5.95859 3.45703C6.2763 3.60286 6.5224 3.8099 6.69687 4.07812C6.87396 4.34635 6.9625 4.65104 6.9625 4.99219H5.79062C5.79062 4.73177 5.70859 4.52995 5.54453 4.38672C5.38047 4.24089 5.15 4.16797 4.85312 4.16797C4.56667 4.16797 4.34401 4.22917 4.18516 4.35156C4.0263 4.47135 3.94687 4.63021 3.94687 4.82812C3.94687 5.01302 4.03932 5.16797 4.22422 5.29297C4.41172 5.41797 4.68646 5.53516 5.04844 5.64453C5.7151 5.84505 6.20078 6.09375 6.50547 6.39062C6.81016 6.6875 6.9625 7.05729 6.9625 7.5C6.9625 7.99219 6.7763 8.37891 6.40391 8.66016C6.03151 8.9388 5.53021 9.07812 4.9 9.07812C4.4625 9.07812 4.06406 8.9987 3.70469 8.83984C3.34531 8.67839 3.07057 8.45833 2.88047 8.17969C2.69297 7.90104 2.59922 7.57812 2.59922 7.21094H3.775C3.775 7.83854 4.15 8.15234 4.9 8.15234C5.17865 8.15234 5.39609 8.09635 5.55234 7.98438C5.70859 7.86979 5.78672 7.71094 5.78672 7.50781ZM11.3703 7.82812H9.31562L8.925 9H7.67891L9.79609 3.3125H10.882L13.0109 9H11.7648L11.3703 7.82812ZM9.63203 6.87891H11.0539L10.3391 4.75L9.63203 6.87891ZM15.1141 8.05859H17.6023V9H13.9422V3.3125H15.1141V8.05859ZM22.1 6.53516H19.85V8.05859H22.4906V9H18.6781V3.3125H22.4828V4.26172H19.85V5.61719H22.1V6.53516Z" fill="white"/>
</svg>
