<svg width="22" height="16" viewBox="0 0 22 16" fill="none" xmlns="http://www.w3.org/2000/svg">
<path fill-rule="evenodd" clip-rule="evenodd" d="M12.4793 0H1.4793C0.788949 0 0.229301 0.503683 0.229301 1.125C0.229301 1.74632 0.788949 2.25 1.4793 2.25H12.4793C13.1696 2.25 13.7293 1.74632 13.7293 1.125C13.7293 0.503683 13.1696 0 12.4793 0ZM8.05756 5.27156H1.17146C0.524486 5.27156 0 5.79604 0 6.44302C0 7.09 0.524486 7.61448 1.17146 7.61448H8.05756C8.70454 7.61448 9.22902 7.09 9.22902 6.44302C9.22902 5.79604 8.70454 5.27156 8.05756 5.27156ZM1.17146 10.5432H3.53597C4.18295 10.5432 4.70744 11.0677 4.70744 11.7146C4.70744 12.3616 4.18295 12.8861 3.53597 12.8861H1.17146C0.524486 12.8861 0 12.3616 0 11.7146C0 11.0677 0.524486 10.5432 1.17146 10.5432Z" fill="#999999"/>
<path d="M17.8638 14.4591C17.8696 14.4222 17.8723 14.385 17.8718 14.3477L17.8718 7.24835L17.9344 7.3868C17.9967 7.52213 18.0814 7.64524 18.1847 7.75063L19.9148 9.53114C20.1323 9.76563 20.4822 9.80504 20.7439 9.62451C21.0227 9.4144 21.0833 9.01147 20.8791 8.72451C20.8626 8.70133 20.8446 8.6793 20.8252 8.65859L17.6966 5.43886C17.4524 5.18724 17.0562 5.18702 16.8117 5.43836L13.6827 8.65859C13.4386 8.91041 13.4392 9.31813 13.6839 9.56927C13.7031 9.58903 13.7236 9.60748 13.7452 9.62451C14.0069 9.80503 14.3568 9.76563 14.5743 9.53114L16.3075 7.75385C16.3994 7.65937 16.4765 7.55074 16.5359 7.43187L16.6204 7.23869L16.6204 14.3122C16.6085 14.6412 16.8318 14.9298 17.146 14.9916C17.4871 15.0485 17.8085 14.8101 17.8638 14.4591Z" fill="#999999" stroke="#999999" stroke-width="0.752577"/>
</svg>
