<svg width="108" height="20" viewBox="0 0 108 20" fill="none" xmlns="http://www.w3.org/2000/svg">
<path d="M97.2734 0L99.5186 6.90983H106.784L100.906 11.1803L103.151 18.0902L97.2734 13.8197L91.3956 18.0902L93.6407 11.1803L87.7629 6.90983H95.0283L97.2734 0Z" fill="#999999"/>
<path d="M75.4541 0L77.6992 6.90983H84.9647L79.0868 11.1803L81.332 18.0902L75.4541 13.8197L69.5762 18.0902L71.8214 11.1803L65.9435 6.90983H73.209L75.4541 0Z" fill="#999999"/>
<path d="M54 0L56.2451 6.90983H63.5106L57.6327 11.1803L59.8779 18.0902L54 13.8197L48.1221 18.0902L50.3673 11.1803L44.4894 6.90983H51.7549L54 0Z" fill="#999999"/>
<path d="M31.8174 0L34.0625 6.90983H41.3279L35.4501 11.1803L37.6952 18.0902L31.8174 13.8197L25.9395 18.0902L28.1847 11.1803L22.3068 6.90983H29.5722L31.8174 0Z" fill="#999999"/>
<path d="M10 0L12.2451 6.90983H19.5106L13.6327 11.1803L15.8779 18.0902L10 13.8197L4.12215 18.0902L6.36729 11.1803L0.489435 6.90983H7.75486L10 0Z" fill="#999999"/>
<path d="M97.2734 0L99.5186 6.90983H106.784L100.906 11.1803L103.151 18.0902L97.2734 13.8197L91.3956 18.0902L93.6407 11.1803L87.7629 6.90983H95.0283L97.2734 0Z" fill="#FFB800"/>
<path d="M75.4541 0L77.6992 6.90983H84.9647L79.0868 11.1803L81.332 18.0902L75.4541 13.8197L69.5762 18.0902L71.8214 11.1803L65.9435 6.90983H73.209L75.4541 0Z" fill="#FFB800"/>
<path d="M54 0L56.2451 6.90983H63.5106L57.6327 11.1803L59.8779 18.0902L54 13.8197L48.1221 18.0902L50.3673 11.1803L44.4894 6.90983H51.7549L54 0Z" fill="#FFB800"/>
<path d="M31.8174 0L34.0625 6.90983H41.3279L35.4501 11.1803L37.6952 18.0902L31.8174 13.8197L25.9395 18.0902L28.1847 11.1803L22.3068 6.90983H29.5722L31.8174 0Z" fill="#FFB800"/>
<path d="M10 0L12.2451 6.90983H19.5106L13.6327 11.1803L15.8779 18.0902L10 13.8197L4.12215 18.0902L6.36729 11.1803L0.489435 6.90983H7.75486L10 0Z" fill="#FFB800"/>
</svg>
